<?xml version="1.0" encoding="utf-8"?>
<!-- Generator: Adobe Illustrator 26.5.0, SVG Export Plug-In . SVG Version: 6.00 Build 0)  -->
<svg version="1.1" id="Layer_1" xmlns="http://www.w3.org/2000/svg" xmlns:xlink="http://www.w3.org/1999/xlink" x="0px" y="0px"
	 viewBox="0 0 400 300" style="enable-background:new 0 0 400 300;" xml:space="preserve">
<style type="text/css">
	.st0{fill:#FFFF00;}
	.st1{fill:#FF0000;}
	.st2{fill:#FF0000;stroke:#ED1C24;stroke-miterlimit:10;}
</style>
<g>
	<polygon class="st0" points="200.11,199.37 152.84,245.59 154.46,192.65 71.64,219.62 121.48,174.47 25.35,175.33 109.56,149.93 
		25.35,124.52 121.48,125.38 71.64,80.23 154.46,107.21 152.84,54.26 200.11,100.48 247.38,54.26 245.77,107.21 328.59,80.23 
		278.74,125.38 374.87,124.52 290.66,149.93 374.87,175.33 278.74,174.47 328.59,219.62 245.77,192.65 247.38,245.59 	"/>
	<path class="st1" d="M153.44,55.62l45.9,44.87l0.78,0.76l0.78-0.76l45.9-44.87l-1.55,50.78l-0.05,1.58l1.5-0.49l79.6-25.92
		l-46.84,42.43l-2.16,1.96l2.92-0.03l90.8-0.82l-78.74,23.76l-3.52,1.06l3.52,1.06L371,174.74l-90.8-0.82l-2.92-0.03l2.16,1.96
		l46.84,42.43l-79.6-25.92l-1.5-0.49l0.05,1.58l1.55,50.78l-45.9-44.87l-0.78-0.76l-0.78,0.76l-45.9,44.87l1.55-50.78l0.05-1.58
		l-1.5,0.49l-79.6,25.92l46.84-42.43l2.16-1.96l-2.92,0.03l-90.8,0.82l78.74-23.76l3.52-1.06l-3.52-1.06l-78.74-23.76l90.8,0.82
		l2.92,0.03l-2.16-1.96L73.93,81.56l79.6,25.92l1.5,0.49l-0.05-1.58L153.44,55.62 M152.25,52.91l1.63,53.53L69.34,78.9l50.69,45.91
		l-98.56-0.89l86.17,26l-86.17,26l98.56-0.89l-50.69,45.91l84.54-27.53l-1.63,53.53l47.87-46.8l47.87,46.8l-1.63-53.53l84.54,27.53
		l-50.69-45.91l98.56,0.89l-86.17-26l86.17-26l-98.56,0.89l50.69-45.91l-84.54,27.53l1.63-53.53l-47.87,46.8L152.25,52.91
		L152.25,52.91z"/>
</g>
<g>
	<path class="st2" d="M144.9,130.29l13.19,12.33c1.24,1.15,2.13,1.72,2.67,1.72c0.92,0,1.38-1.05,1.38-3.14c0-2.38-0.13-4-0.4-4.86
		c-0.27-0.87-0.82-1.52-1.67-1.95c-0.69-0.36-1.17-0.74-1.46-1.15c-0.28-0.4-0.42-0.93-0.42-1.57c0-1.58,1.02-2.6,3.04-3.05
		c0.83-0.19,2.28-0.28,4.34-0.28c2.67,0,4.51,0.17,5.53,0.51c1.62,0.53,2.44,1.53,2.44,3c0,1.23-0.66,2.15-1.99,2.77
		c-0.53,0.25-0.89,0.46-1.09,0.65c-0.19,0.19-0.36,0.47-0.5,0.85c-0.48,1.24-0.72,3.6-0.74,7.07v9.22c0,1.41,0.01,3.35,0.03,5.8
		c0.02,3.32-0.17,5.71-0.56,7.18c-0.48,1.83-1.34,2.74-2.59,2.74c-0.55,0-1.02-0.12-1.42-0.37c-0.4-0.24-1.05-0.81-1.97-1.7
		l-15.7-15.01c-1.09-1.06-2-1.58-2.73-1.58c-1.08,0-1.62,1.59-1.62,4.78c0,2.62,0.14,4.41,0.41,5.37s0.83,1.67,1.68,2.12
		c1.18,0.62,1.77,1.43,1.77,2.43c0,2.62-2.64,3.93-7.92,3.93c-2.38,0-4.23-0.33-5.55-1c-1.32-0.67-1.97-1.62-1.97-2.84
		c0-0.64,0.12-1.12,0.37-1.44c0.25-0.32,0.8-0.75,1.67-1.3c0.83-0.53,1.33-1.46,1.51-2.8c0.3-2.43,0.45-5.93,0.45-10.49
		c0-4.86-0.26-8.41-0.79-10.63c-0.19-0.81-0.44-1.41-0.74-1.81c-0.3-0.4-0.79-0.77-1.48-1.13c-0.79-0.41-1.35-0.82-1.65-1.22
		c-0.31-0.4-0.46-0.88-0.46-1.44c0-1.81,1.46-2.95,4.37-3.42c0.99-0.15,2.72-0.23,5.19-0.23c1.41,0,2.44,0.12,3.08,0.35
		C143.25,128.93,144.01,129.46,144.9,130.29z"/>
	<path class="st2" d="M180.83,128.93h13.61c2.75,0,4.76-0.06,6.02-0.18s2.49-0.37,3.69-0.75c0.37-0.11,0.66-0.17,0.87-0.17
		c0.92,0,1.73,0.53,2.44,1.58c1.17,1.72,1.75,3.79,1.75,6.22c0,1.23-0.24,2.19-0.73,2.9c-0.49,0.71-1.15,1.06-2,1.06
		c-0.58,0-1.04-0.13-1.36-0.38c-0.33-0.25-0.76-0.82-1.31-1.71c-0.78-1.26-1.76-2.11-2.95-2.53c-1.19-0.42-3.15-0.64-5.87-0.64
		c-2.03,0-3.27,0.39-3.71,1.16c-0.23,0.41-0.37,0.97-0.41,1.67c-0.04,0.7-0.07,2.48-0.07,5.34c0,1.13,0.18,1.83,0.53,2.11
		c0.35,0.27,1.28,0.41,2.78,0.41c0.74,0,1.28-0.16,1.62-0.49c0.33-0.33,0.55-0.92,0.64-1.77c0.12-1.09,0.25-1.84,0.38-2.25
		c0.13-0.4,0.38-0.76,0.73-1.06c0.37-0.34,0.8-0.51,1.3-0.51c0.72,0,1.34,0.37,1.85,1.1c0.37,0.55,0.68,1.51,0.94,2.9
		c0.26,1.39,0.38,2.83,0.38,4.34c0,2.98-0.43,5.42-1.3,7.32c-0.48,1.04-1.2,1.56-2.17,1.56c-0.6,0-1.02-0.17-1.24-0.49
		c-0.23-0.33-0.41-1.01-0.53-2.05c-0.26-2.13-1.43-3.19-3.5-3.19c-0.79,0-1.34,0.27-1.63,0.81c-0.29,0.54-0.44,1.53-0.44,2.98
		c0,0.89,0.06,2.03,0.17,3.44c0.11,1.4,0.23,2.33,0.36,2.78c0.14,0.57,0.58,0.96,1.31,1.17c0.73,0.22,1.95,0.33,3.67,0.33
		c2.65,0,4.64-0.36,5.98-1.09c1.34-0.73,2.44-2.04,3.28-3.94c0.49-1.09,0.94-1.83,1.34-2.21c0.4-0.38,0.91-0.57,1.55-0.57
		c0.74,0,1.35,0.34,1.84,1.03c0.48,0.69,0.73,1.55,0.73,2.59c0,1.13-0.27,2.54-0.82,4.24c-0.55,1.7-1.22,3.2-2.01,4.52
		c-0.41,0.64-0.74,1.07-1.01,1.29c-0.27,0.22-0.6,0.33-1.01,0.33c-0.34,0-0.82-0.06-1.46-0.17c-1.13-0.23-2.64-0.37-4.53-0.42H178.1
		c-0.9,0-1.6-0.21-2.09-0.64c-0.49-0.42-0.74-1.02-0.74-1.8c0-0.55,0.11-0.94,0.32-1.19c0.21-0.24,0.7-0.56,1.46-0.93
		c0.53-0.25,0.92-0.55,1.18-0.9s0.45-0.89,0.6-1.58c0.58-2.85,0.87-6.68,0.87-11.51c0-7.28-0.42-11.86-1.27-13.77
		c-0.18-0.38-0.37-0.64-0.58-0.79c-0.21-0.15-0.65-0.33-1.32-0.54c-1.01-0.32-1.51-1.04-1.51-2.15c0-0.6,0.17-1.14,0.5-1.61
		c0.33-0.47,0.78-0.78,1.32-0.93C177.52,129.02,178.85,128.93,180.83,128.93z"/>
	<path class="st2" d="M236.35,138.97l-0.77-1.98c-0.48-1.15-1.07-1.91-1.77-2.29c-1.27-0.72-1.91-1.62-1.91-2.71
		c0-2.41,3.39-3.62,10.17-3.62c3.39,0,5.97,0.29,7.73,0.88c0.6,0.21,1.08,0.54,1.44,0.99c0.36,0.45,0.54,0.95,0.54,1.5
		c0,0.47-0.08,0.83-0.25,1.07c-0.17,0.25-0.63,0.73-1.39,1.44c-0.44,0.4-0.66,0.81-0.66,1.24c0,0.66,0.34,1.75,1.01,3.28l1.51,3.45
		c0.69,1.56,1.18,2.56,1.47,2.98c0.29,0.42,0.62,0.64,0.99,0.64c0.41,0,0.75-0.24,1.05-0.73c0.29-0.49,0.67-1.45,1.13-2.88
		l1.27-3.96c0.35-1.13,0.53-1.98,0.53-2.54c0-0.75-0.37-1.25-1.11-1.5c-1.48-0.51-2.22-1.41-2.22-2.71c0-1.13,0.57-1.94,1.72-2.43
		c1.15-0.49,3.04-0.74,5.67-0.74c1.71,0,3.04,0.21,4,0.62c1.32,0.57,1.99,1.47,1.99,2.71c0,0.55-0.12,1.02-0.36,1.41
		c-0.24,0.4-0.72,0.92-1.44,1.58c-0.48,0.43-0.84,0.9-1.1,1.39s-0.65,1.5-1.18,3.02l-4.63,13.15c-2.31,6.13-3.71,9.77-4.18,10.94
		c-0.48,1.17-0.97,2.21-1.48,3.14c-0.39,0.68-0.82,1.15-1.3,1.43s-1.11,0.41-1.91,0.41c-1.06,0-1.91-0.25-2.56-0.74
		c-0.64-0.49-1.19-1.3-1.63-2.43l-5.24-13.29c-0.28-0.73-0.49-1.2-0.64-1.39c-0.14-0.19-0.34-0.28-0.58-0.28
		c-0.37,0-0.69,0.24-0.95,0.71c-0.26,0.47-0.77,1.69-1.51,3.65l-3.6,9.56c-0.67,1.73-1.31,2.88-1.92,3.44
		c-0.61,0.56-1.53,0.83-2.77,0.83c-1.11,0-1.99-0.28-2.63-0.85c-0.64-0.57-1.23-1.56-1.76-3l-9.74-26.6
		c-0.41-1.09-0.68-1.74-0.83-1.94c-0.15-0.2-0.62-0.52-1.42-0.98c-0.9-0.49-1.35-1.32-1.35-2.49c0-2.66,3.09-3.99,9.27-3.99
		c3.16,0,5.45,0.24,6.86,0.71c1.36,0.47,2.04,1.4,2.04,2.8c0,0.43-0.04,0.75-0.11,0.95c-0.07,0.2-0.33,0.64-0.77,1.31
		c-0.21,0.36-0.32,0.8-0.32,1.33c0,0.94,0.59,2.9,1.77,5.88l1.09,2.71c0.46,1.13,0.76,1.81,0.91,2.05c0.15,0.24,0.37,0.35,0.65,0.35
		c0.69,0,1.39-1.05,2.12-3.14l1.09-3.22c0.09-0.23,0.13-0.41,0.13-0.54C236.49,139.41,236.44,139.21,236.35,138.97z"/>
</g>
</svg>
